<?xml version="1.0" standalone="no"?>
<!DOCTYPE svg PUBLIC "-//W3C//DTD SVG 20010904//EN"
 "http://www.w3.org/TR/2001/REC-SVG-20010904/DTD/svg10.dtd">
<svg version="1.0" xmlns="http://www.w3.org/2000/svg"
 width="100" height="100" viewBox="0 0 225.000000 225.000000"
 preserveAspectRatio="xMidYMid meet">

<g transform="translate(0.000000,225.000000) scale(0.100000,-0.100000)"
fill="#000000" stroke="none">
<path d="M1102 2183 c-18 -16 -63 -147 -232 -675 l-31 -98 -410 0 -409 0 -12
-25 c-8 -19 -8 -28 2 -40 7 -8 148 -114 314 -234 165 -121 309 -226 319 -233
17 -12 10 -36 -103 -387 -67 -205 -124 -379 -127 -386 -4 -13 29 -55 45 -55 4
0 156 108 337 239 l330 240 50 -36 c27 -20 173 -126 323 -235 150 -110 280
-202 287 -204 17 -7 58 33 52 51 -3 7 -60 181 -127 386 -113 351 -120 375
-103 387 10 7 154 112 319 233 166 120 307 226 314 234 10 12 10 21 2 40 l-12
25 -409 0 -409 0 -97 298 c-53 163 -108 335 -124 381 -31 97 -55 123 -89 94z
m133 -510 c59 -181 111 -332 116 -338 6 -6 146 -12 359 -15 l350 -5 -280 -203
c-247 -180 -280 -207 -280 -230 0 -15 47 -169 104 -342 56 -173 102 -317 100
-319 -2 -2 -124 84 -271 191 -147 107 -277 200 -288 206 -14 7 -25 7 -40 0
-11 -6 -141 -99 -288 -206 -147 -107 -269 -193 -271 -191 -2 2 44 146 100 319
57 173 104 327 104 342 0 23 -33 50 -280 230 l-280 203 350 5 c213 3 353 9
359 15 5 6 57 157 116 338 58 180 108 327 110 327 2 0 52 -147 110 -327z"/>
</g>
</svg>
